<?xml version="1.0" encoding="utf-8"?>
<!-- Generator: Adobe Illustrator 17.0.0, SVG Export Plug-In . SVG Version: 6.00 Build 0)  -->
<!DOCTYPE svg PUBLIC "-//W3C//DTD SVG 1.1//EN" "http://www.w3.org/Graphics/SVG/1.1/DTD/svg11.dtd">
<svg version="1.1" id="图层_1" xmlns="http://www.w3.org/2000/svg" xmlns:xlink="http://www.w3.org/1999/xlink" x="0px" y="0px"
	 width="56px" height="64px" viewBox="0 0 56 64" enable-background="new 0 0 56 64" xml:space="preserve">
<g>
	<g>
		<g>
			<g>
				<path fill="#817EBB" d="M40,0H8C3.582,0,0,3.582,0,8v48c0,4.418,3.582,8,8,8h40c4.418,0,8-3.582,8-8V16L40,0z"/>
			</g>
			<g>
				<path fill="#CFC5E1" d="M40,8c0,4.418,3.582,8,8,8h8L40,0V8z"/>
			</g>
		</g>
	</g>
</g>
<g>
	<path fill="#FFFFFF" d="M16.808,37.727v-2.086l6.016-7.43h-5.336v-1.938h8.383v1.797l-6.273,7.727h6.516v1.93H16.808z"/>
	<path fill="#FFFFFF" d="M26.703,37.727V26.273h2.313v11.453H26.703z"/>
	<path fill="#FFFFFF" d="M30.419,37.727V26.273h3.711c1.406,0,2.323,0.058,2.75,0.172c0.656,0.172,1.206,0.546,1.648,1.121
		c0.442,0.576,0.664,1.319,0.664,2.23c0,0.703-0.128,1.294-0.383,1.773c-0.255,0.479-0.58,0.855-0.973,1.129
		c-0.394,0.273-0.793,0.455-1.199,0.543c-0.552,0.109-1.352,0.164-2.398,0.164h-1.508v4.32H30.419z M32.731,28.211v3.25h1.266
		c0.911,0,1.521-0.06,1.828-0.18c0.307-0.12,0.548-0.307,0.723-0.563c0.174-0.255,0.262-0.552,0.262-0.891
		c0-0.417-0.123-0.76-0.367-1.031c-0.245-0.271-0.555-0.44-0.93-0.508c-0.276-0.052-0.831-0.078-1.664-0.078H32.731z"/>
</g>
</svg>
