<?xml version="1.0" encoding="utf-8"?>
<!-- Generator: Adobe Illustrator 15.0.0, SVG Export Plug-In . SVG Version: 6.00 Build 0)  -->
<!DOCTYPE svg PUBLIC "-//W3C//DTD SVG 1.1//EN" "http://www.w3.org/Graphics/SVG/1.1/DTD/svg11.dtd">
<svg version="1.1" id="图层_1" xmlns="http://www.w3.org/2000/svg" xmlns:xlink="http://www.w3.org/1999/xlink" x="0px" y="0px"
	 width="200px" height="200px" viewBox="0 0 200 200" enable-background="new 0 0 200 200" xml:space="preserve">
<g>
	<g>
		<g>
			<g>
				<path fill="#3FD9FF" d="M107.327,6.958l71.69,39.815c5.01,2.773,8.131,8.054,8.144,13.784v78.794
					c-0.013,5.718-3.134,10.997-8.144,13.772l-71.69,39.812c-4.833,2.679-10.722,2.679-15.561,0L20.08,153.123
					c-5.019-2.776-8.129-8.055-8.142-13.772V60.557c0.015-5.73,3.123-11.011,8.142-13.784L91.767,6.958
					C96.605,4.272,102.492,4.272,107.327,6.958L107.327,6.958z"/>
			</g>
		</g>
		<g>
			<g>
				<path fill="#5296DE" d="M100.341,19.397c-0.498-0.268-1.093-0.268-1.589,0L27.073,59.21c-0.497,0.264-0.799,0.778-0.802,1.347
					v78.794c0,0.538,0.305,1.063,0.802,1.342l71.679,39.805c0.496,0.276,1.091,0.276,1.589,0l71.679-39.805
					c0.492-0.272,0.806-0.785,0.806-1.342V60.557c0-0.568-0.313-1.083-0.806-1.347L100.341,19.397z M107.327,6.958l71.69,39.815
					c5.01,2.773,8.131,8.054,8.144,13.784v78.794c-0.013,5.718-3.134,10.997-8.144,13.772l-71.69,39.812
					c-4.833,2.679-10.722,2.679-15.561,0L20.08,153.123c-5.019-2.776-8.129-8.055-8.142-13.772V60.557
					c0.015-5.73,3.123-11.011,8.142-13.784L91.767,6.958C96.605,4.272,102.492,4.272,107.327,6.958L107.327,6.958z"/>
			</g>
		</g>
	</g>
	<path fill="#3D5AB7" d="M100.341,19.397c-0.498-0.268-1.093-0.268-1.589,0L27.073,59.21c-0.497,0.264-0.799,0.778-0.802,1.347
		v78.794c0,0.538,0.305,1.063,0.802,1.342l71.679,39.805c0.496,0.276,1.091,0.276,1.589,0l71.679-39.805
		c0.492-0.272,0.806-0.785,0.806-1.342V60.557c0-0.568-0.313-1.083-0.806-1.347L100.341,19.397z"/>
	<g>
		<rect x="102.248" y="55.634" fill="#F8A115" width="30.941" height="8.448"/>
		<g>
			<path fill="#FFFFFF" d="M75.034,55.634H63.352h-6.339H54.9v91.956h8.45v-28.085h11.684v28.085h8.447V55.634h-2.857H75.034z
				 M75.034,111.057H63.352V91.422h11.683V111.057z M63.352,82.971V64.082h11.683v18.89L63.352,82.971L63.352,82.971z"/>
			<polygon fill="#FFFFFF" points="89.382,95.647 99.351,95.647 88.121,142.879 96.284,145.07 109.556,91.422 109.58,87.197 
				89.382,87.197 			"/>
			<path fill="#FFFFFF" d="M126.016,98.457l17.233-14.516l-5.443-6.462l-16.548,13.934V79.739v-4.41v-4.038H95.537v8.448h17.273
				v67.851h8.448v-39.976l18.915,36.288l7.492-3.905L126.016,98.457z M121.259,95.947v-0.226l0.133,0.158L121.259,95.947z"/>
		</g>
	</g>
</g>
</svg>
